# xmcd CD database file
#
# Track frame offsets:
#	150
#	32875
#	61392
#	87722
#	108647
#	142335
#	159247
#
# Disc length: 2550 seconds
#
# Revision: 3
# Processed by: cddbd v1.5.1PL0 Copyright (c) Steve Scherf et al.
# Submitted via: CDex 1.51
#
DISCID=6509f407
DTITLE=鈴木・ポンちゃん・康允 - love and respect
DYEAR=2004
DGENRE=Jazz
TTITLE0=beautiful love
TTITLE1=I fall in love too easily
TTITLE2=how insensitive
TTITLE3=prelude to a kiss
TTITLE4=body and soul
TTITLE5=I hear a rhapsody
TTITLE6=it's so good to see you!
EXTD=YEAR: 2004
EXTT0=
EXTT1=
EXTT2=
EXTT3=
EXTT4=
EXTT5=
EXTT6=
PLAYORDER=
